<?xml version="1.0"?>
<svg xmlns="http://www.w3.org/2000/svg" viewBox="0 0 64 64" width="512" height="512"><g id="outline"><path d="M26,2a1,1,0,0,0-.968.75L19.515,24.071l-1.357,1.357,2.834-22.3h0A1,1,0,0,0,20,2H16a1,1,0,0,0-.994.892L12.483,26H12a3.989,3.989,0,0,0-.381,7.961L9.006,57.892A1,1,0,0,0,10,59h.484l-.452,1.75A1,1,0,0,0,11,62h3a1,1,0,0,0,.964-.734l5.381-19.517a3.052,3.052,0,0,0,3.191.684,3.092,3.092,0,0,0,.757,1.273h0a3.12,3.12,0,0,0,4.413,0l.6-.6,3.45.862A1,1,0,0,0,33,44a.993.993,0,0,0,.394-.081L39,41.516V42a1,1,0,0,0,1,1h4a1,1,0,0,0,1-1V41h9a1,1,0,0,0,1-1V26a1,1,0,0,0-1-1H45V24a1,1,0,0,0-1-1H40a1,1,0,0,0-1,1v1H34.265L27.58,21.186a4.828,4.828,0,0,0-1.375-.667L30.964,3.266A1,1,0,0,0,30,2ZM45,27h8V39H45Zm-4-2h2V41H41ZM16.9,4h1.968l-.51,4H16.46Zm-.655,6H18.1L16.069,26H14.5ZM13.627,34h1.418L13.209,48.468,11.2,56.241Zm-.388,26h-.947l6.724-26h1.392ZM23.293,40.293a1.148,1.148,0,0,1-1.584,0l0,0h0a1.12,1.12,0,0,1,0-1.584L24.414,36h1.172l1,1Zm4,2a1.148,1.148,0,0,1-1.584,0l0,0h0a1.12,1.12,0,0,1,0-1.584L28,38.414,29.586,40ZM26.5,22.868l7,4A.993.993,0,0,0,34,27h5V39.341l-6.084,2.607-1.96-.49.751-.751a1,1,0,0,0,0-1.414L28.414,36H30V34H24.414l-1.707-1.707A1,1,0,0,0,22,32H12a2,2,0,0,1,0-4H26V26H24.693l.98-3.554A3.275,3.275,0,0,1,26.5,22.868ZM22.618,26H21.083l4.139-16h1.809ZM27.583,8H25.74l1.034-4h1.913Z"/></g></svg>
